<?xml version="1.0" encoding="iso-8859-1"?>
<!-- Generator: Adobe Illustrator 19.0.0, SVG Export Plug-In . SVG Version: 6.00 Build 0)  -->
<svg version="1.1" id="Capa_1" xmlns="http://www.w3.org/2000/svg" xmlns:xlink="http://www.w3.org/1999/xlink" x="0px" y="0px"
	 viewBox="0 0 512.009 512.009" style="enable-background:new 0 0 512.009 512.009;" xml:space="preserve">
<path style="fill:#303C42;" d="M394.801,220.234c-9.292-17.417-27.333-28.229-47.063-28.229H164.28
	c-19.729,0-37.771,10.813-47.062,28.229l-68.271,128.01c-4.104,7.708-6.271,16.385-6.271,25.094v74.667
	c0,23.531,19.146,42.667,42.667,42.667h341.333c23.521,0,42.667-19.135,42.667-42.667v-74.667c0-8.708-2.167-17.385-6.271-25.104
	L394.801,220.234z"/>
<path style="fill:#546E7A;" d="M448.009,448.004c0,11.76-9.563,21.333-21.333,21.333H85.342c-11.771,0-21.333-9.573-21.333-21.333
	v-74.667c0-5.219,1.313-10.438,3.771-15.063l68.271-128c5.563-10.448,16.396-16.938,28.229-16.938h183.458
	c11.833,0,22.667,6.49,28.229,16.938l68.271,127.99c2.458,4.635,3.771,9.854,3.771,15.073V448.004z"/>
<path style="fill:#303C42;" d="M503.25,129.025C437.229,59.588,349.417,21.338,255.99,21.338
	c-93.417,0-181.229,38.25-247.24,107.688C2.938,135.14,0,143.168,0,151.196c0,8.027,2.937,16.053,8.75,22.163l49.167,51.74
	c11.563,12.146,32.083,12.146,43.646,0c16.448-17.302,35.146-31.563,55.479-42.333c10.188-5.25,16.771-16.302,16.677-26.75
	l7.438-56.063c53.583-17.146,96.615-17.135,149.698-0.01l7.333,54.667c0,11.823,6.271,22.615,16.521,28.25
	c20.438,10.823,39.135,25.083,55.594,42.375c5.781,6.094,13.531,9.438,21.823,9.438c8.281,0,16.031-3.344,21.813-9.427
	l49.313-51.875c5.625-5.918,8.569-13.628,8.75-21.396C512.193,143.688,509.25,135.337,503.25,129.025z"/>
<path style="fill:#546E7A;" d="M487.792,158.661l-49.313,51.885c-3.448,3.615-9.292,3.604-12.719-0.01
	c-18.052-18.969-38.594-34.625-60.927-46.448c-3.323-1.833-5.313-5.375-5.406-10.885l-8.313-62.688
	c-0.531-4.01-3.292-7.375-7.115-8.688c-31.115-10.656-59.406-15.979-87.781-15.979c-28.365,0-56.802,5.323-88.187,15.969
	c-3.844,1.302-6.615,4.677-7.146,8.698l-8.406,64.094c0,3.896-2.094,7.594-5.313,9.25c-22.479,11.906-43.021,27.563-61.063,46.531
	c-3.438,3.604-9.292,3.594-12.729,0.01l-49.167-51.74c-3.854-4.042-3.854-10.885,0-14.927
	C86.156,78.557,168.469,42.671,255.99,42.671s169.844,35.885,231.802,101.063C491.646,147.775,491.646,154.619,487.792,158.661z"/>
<g>
	<circle style="fill:#303C42;" cx="191.983" cy="277.338" r="21.333"/>
	<circle style="fill:#303C42;" cx="191.983" cy="341.338" r="21.333"/>
	<circle style="fill:#303C42;" cx="191.983" cy="405.338" r="21.333"/>
	<circle style="fill:#303C42;" cx="256.004" cy="405.338" r="21.333"/>
</g>
<path style="opacity:0.1;enable-background:new    ;" d="M444.229,358.265l-68.271-127.99
	c-5.563-10.448-16.396-16.938-28.229-16.938h-53.333c11.815,0,22.668,6.51,28.228,16.935l68.272,127.992
	c2.475,4.641,3.771,9.82,3.771,15.081c0,29.451-23.874,53.326-53.324,53.326H64v21.333c0,11.76,9.563,21.333,21.333,21.333h341.333
	c11.771,0,21.333-9.573,21.333-21.333v-74.667C448,368.119,446.688,362.9,444.229,358.265z"/>
<path style="opacity:0.1;enable-background:new    ;" d="M152.229,121.364c-14.717,8.169-28.566,18.103-41.37,29.663
	C97.5,163.085,77.189,162.809,65.1,149.477l-21.715-23.945c-6.529,5.88-13.018,11.826-19.161,18.288
	c-3.854,4.042-3.854,10.885,0,14.927l49.173,51.74c3.438,3.583,9.293,3.594,12.73-0.01c18.044-18.969,38.589-34.625,61.07-46.531
	c3.219-1.656,5.313-5.354,5.313-9.25l5.406-41.215C156.262,116.967,154.01,120.403,152.229,121.364z"/>
<path style="opacity:0.1;enable-background:new    ;" d="M487.865,143.82c-6.128-6.445-12.605-12.375-19.117-18.241l-21.816,24.055
	c-12.083,13.323-32.385,13.602-45.736,1.548c-12.801-11.556-26.621-21.475-41.247-29.589c-1.792-1.036-3.975-3.915-5.62-7.186
	l5.156,38.882c0.094,5.51,2.083,9.052,5.406,10.885c22.336,11.823,42.88,27.479,60.935,46.448c3.427,3.615,9.272,3.625,12.72,0.01
	l49.319-51.885C491.719,154.705,491.719,147.861,487.865,143.82z"/>
<g>
	<circle style="fill:#303C42;" cx="319.983" cy="405.338" r="21.333"/>
	<circle style="fill:#303C42;" cx="256.004" cy="341.338" r="21.333"/>
	<circle style="fill:#303C42;" cx="319.983" cy="341.338" r="21.333"/>
	<circle style="fill:#303C42;" cx="256.004" cy="277.338" r="21.333"/>
	<circle style="fill:#303C42;" cx="319.983" cy="277.338" r="21.333"/>
</g>
<linearGradient id="SVGID_1_" gradientUnits="userSpaceOnUse" x1="-47.0097" y1="639.0758" x2="-23.3097" y2="628.0238" gradientTransform="matrix(21.3333 0 0 -21.3333 996.2424 13791.7666)">
	<stop  offset="0" style="stop-color:#FFFFFF;stop-opacity:0.2"/>
	<stop  offset="1" style="stop-color:#FFFFFF;stop-opacity:0"/>
</linearGradient>
<path style="fill:url(#SVGID_1_);" d="M394.801,220.234c-9.292-17.417-27.333-28.229-47.063-28.229H164.28
	c-19.729,0-37.771,10.813-47.062,28.229l-68.271,128.01c-4.104,7.708-6.271,16.385-6.271,25.094v74.667
	c0,23.531,19.146,42.667,42.667,42.667h341.333c23.521,0,42.667-19.135,42.667-42.667v-74.667c0-8.708-2.167-17.385-6.271-25.104
	L394.801,220.234z M503.25,129.025C437.229,59.588,349.417,21.338,255.99,21.338c-93.417,0-181.229,38.25-247.24,107.688
	C2.938,135.14,0,143.169,0,151.196s2.937,16.053,8.75,22.163l49.167,51.74c11.563,12.146,32.083,12.146,43.646,0
	c16.448-17.302,35.146-31.563,55.479-42.333c10.188-5.25,16.771-16.302,16.677-26.75l7.438-56.063
	c53.583-17.146,96.615-17.135,149.698-0.01l7.333,54.667c0,11.823,6.271,22.615,16.521,28.25
	c20.438,10.823,39.135,25.083,55.594,42.375c5.781,6.094,13.531,9.438,21.823,9.438c8.281,0,16.031-3.344,21.813-9.427
	l49.313-51.875c5.625-5.918,8.569-13.628,8.75-21.396C512.193,143.688,509.25,135.337,503.25,129.025z"/>
<g>
</g>
<g>
</g>
<g>
</g>
<g>
</g>
<g>
</g>
<g>
</g>
<g>
</g>
<g>
</g>
<g>
</g>
<g>
</g>
<g>
</g>
<g>
</g>
<g>
</g>
<g>
</g>
<g>
</g>
</svg>
